# xmcd CD database file
#
# Track frame offsets:
#	150
#	20103
#	59028
#	78610
#	98500
#	137403
#	168098
#
# Disc length: 2270 seconds
#
# Revision: 0
# Processed by: cddbd v1.5PL3 Copyright (c) Steve Scherf et al.
# Submitted via: CDex 1.51
#
DISCID=5408dc07
DTITLE=安西ひろこ - Let You Go
DYEAR=2001
DGENRE=JPop
TTITLE0=Let You Go  J-POP Ver.
TTITLE1=Let You Go  TRANCE Ver.
TTITLE2=Let You Go  EUROBEAT Ver.
TTITLE3=Let You Go  J-POP Ver. (KARAOKE)
TTITLE4=Let You Go  TRANCE Ver. (KARAOKE)
TTITLE5=Let You Go  EUROBEAT Ver. (KARAOKE)
TTITLE6=CD EXTREA
EXTD=YEAR: 2001
EXTT0=
EXTT1=
EXTT2=
EXTT3=
EXTT4=
EXTT5=
EXTT6=
PLAYORDER=
